<mxfile host="app.diagrams.net" agent="Mozilla/5.0 (Windows NT 10.0; Win64; x64) AppleWebKit/537.36 (KHTML, like Gecko) Chrome/134.0.0.0 Safari/537.36" version="26.2.1">
  <diagram id="C5RBs43oDa-KdzZeNtuy" name="Page-1">
    <mxGraphModel dx="867" dy="539" grid="0" gridSize="10" guides="1" tooltips="1" connect="1" arrows="1" fold="1" page="1" pageScale="1" pageWidth="827" pageHeight="1169" math="0" shadow="0">
      <root>
        <mxCell id="WIyWlLk6GJQsqaUBKTNV-0" />
        <mxCell id="WIyWlLk6GJQsqaUBKTNV-1" parent="WIyWlLk6GJQsqaUBKTNV-0" />
        <mxCell id="_8PwzIx_y7-3H37tJzUT-0" value="" style="strokeWidth=2;html=1;shape=mxgraph.flowchart.start_1;whiteSpace=wrap;" vertex="1" parent="WIyWlLk6GJQsqaUBKTNV-1">
          <mxGeometry x="110" y="60" width="90" height="40" as="geometry" />
        </mxCell>
        <mxCell id="_8PwzIx_y7-3H37tJzUT-1" value="" style="strokeWidth=2;html=1;shape=mxgraph.flowchart.start_1;whiteSpace=wrap;" vertex="1" parent="WIyWlLk6GJQsqaUBKTNV-1">
          <mxGeometry x="90" y="300" width="90" height="40" as="geometry" />
        </mxCell>
        <mxCell id="_8PwzIx_y7-3H37tJzUT-2" value="" style="strokeWidth=2;html=1;shape=mxgraph.flowchart.decision;whiteSpace=wrap;" vertex="1" parent="WIyWlLk6GJQsqaUBKTNV-1">
          <mxGeometry x="80" y="170" width="100" height="100" as="geometry" />
        </mxCell>
        <mxCell id="_8PwzIx_y7-3H37tJzUT-3" value="" style="rounded=1;whiteSpace=wrap;html=1;absoluteArcSize=1;arcSize=14;strokeWidth=2;" vertex="1" parent="WIyWlLk6GJQsqaUBKTNV-1">
          <mxGeometry x="40" y="138" width="100" height="30" as="geometry" />
        </mxCell>
        <mxCell id="_8PwzIx_y7-3H37tJzUT-4" value="" style="rounded=0;html=1;jettySize=auto;orthogonalLoop=1;fontSize=11;endArrow=blockThin;endFill=1;endSize=8;strokeWidth=1;shadow=0;labelBackgroundColor=none;edgeStyle=orthogonalEdgeStyle;strokeColor=#457B9D;fontColor=default;" edge="1" parent="WIyWlLk6GJQsqaUBKTNV-1" target="_8PwzIx_y7-3H37tJzUT-6">
          <mxGeometry relative="1" as="geometry">
            <mxPoint x="670" y="60" as="sourcePoint" />
          </mxGeometry>
        </mxCell>
        <mxCell id="_8PwzIx_y7-3H37tJzUT-5" style="edgeStyle=orthogonalEdgeStyle;rounded=0;orthogonalLoop=1;jettySize=auto;html=1;exitX=0.5;exitY=1;exitDx=0;exitDy=0;entryX=0.5;entryY=0;entryDx=0;entryDy=0;labelBackgroundColor=none;strokeColor=#457B9D;fontColor=default;" edge="1" parent="WIyWlLk6GJQsqaUBKTNV-1" source="_8PwzIx_y7-3H37tJzUT-6" target="_8PwzIx_y7-3H37tJzUT-7">
          <mxGeometry relative="1" as="geometry" />
        </mxCell>
        <mxCell id="_8PwzIx_y7-3H37tJzUT-6" value="查看已有报告" style="rhombus;whiteSpace=wrap;html=1;shadow=0;fontFamily=Helvetica;fontSize=12;align=center;strokeWidth=1;spacing=6;spacingTop=-4;labelBackgroundColor=none;fillColor=light-dark(#527598, #2566a8);strokeColor=#006EAF;fontColor=#ffffff;verticalAlign=middle;" vertex="1" parent="WIyWlLk6GJQsqaUBKTNV-1">
          <mxGeometry x="620" y="110" width="100" height="40" as="geometry" />
        </mxCell>
        <mxCell id="_8PwzIx_y7-3H37tJzUT-7" value="显示该报告" style="rounded=1;whiteSpace=wrap;html=1;fontSize=12;glass=0;strokeWidth=1;shadow=0;labelBackgroundColor=none;fillColor=#A8DADC;strokeColor=#457B9D;fontColor=#1D3557;" vertex="1" parent="WIyWlLk6GJQsqaUBKTNV-1">
          <mxGeometry x="630" y="180" width="80" height="30" as="geometry" />
        </mxCell>
        <mxCell id="_8PwzIx_y7-3H37tJzUT-24" style="edgeStyle=orthogonalEdgeStyle;rounded=0;orthogonalLoop=1;jettySize=auto;html=1;exitX=0.5;exitY=1;exitDx=0;exitDy=0;exitPerimeter=0;entryX=0.5;entryY=0;entryDx=0;entryDy=0;" edge="1" parent="WIyWlLk6GJQsqaUBKTNV-1" source="_8PwzIx_y7-3H37tJzUT-8" target="_8PwzIx_y7-3H37tJzUT-11">
          <mxGeometry relative="1" as="geometry" />
        </mxCell>
        <mxCell id="_8PwzIx_y7-3H37tJzUT-8" value="开始" style="strokeWidth=2;html=1;shape=mxgraph.flowchart.start_2;whiteSpace=wrap;labelBackgroundColor=none;fillColor=#dae8fc;strokeColor=#6c8ebf;" vertex="1" parent="WIyWlLk6GJQsqaUBKTNV-1">
          <mxGeometry x="335" y="40" width="90" height="40" as="geometry" />
        </mxCell>
        <mxCell id="_8PwzIx_y7-3H37tJzUT-9" value="yes" style="text;html=1;align=center;verticalAlign=middle;resizable=0;points=[];autosize=1;strokeColor=none;fillColor=none;labelBackgroundColor=none;fontColor=#1D3557;" vertex="1" parent="WIyWlLk6GJQsqaUBKTNV-1">
          <mxGeometry x="660" y="148" width="40" height="30" as="geometry" />
        </mxCell>
        <mxCell id="_8PwzIx_y7-3H37tJzUT-25" style="edgeStyle=orthogonalEdgeStyle;rounded=0;orthogonalLoop=1;jettySize=auto;html=1;exitX=0.5;exitY=1;exitDx=0;exitDy=0;entryX=0.5;entryY=0;entryDx=0;entryDy=0;" edge="1" parent="WIyWlLk6GJQsqaUBKTNV-1" source="_8PwzIx_y7-3H37tJzUT-11" target="_8PwzIx_y7-3H37tJzUT-16">
          <mxGeometry relative="1" as="geometry" />
        </mxCell>
        <mxCell id="_8PwzIx_y7-3H37tJzUT-11" value="选择cheama" style="rounded=1;whiteSpace=wrap;html=1;fontSize=12;glass=0;strokeWidth=1;shadow=0;labelBackgroundColor=none;fillColor=#A8DADC;strokeColor=#457B9D;fontColor=#1D3557;" vertex="1" parent="WIyWlLk6GJQsqaUBKTNV-1">
          <mxGeometry x="340" y="100" width="80" height="30" as="geometry" />
        </mxCell>
        <mxCell id="_8PwzIx_y7-3H37tJzUT-12" value="批量生成" style="rounded=1;whiteSpace=wrap;html=1;fontSize=12;glass=0;strokeWidth=1;shadow=0;labelBackgroundColor=none;fillColor=#A8DADC;strokeColor=#457B9D;fontColor=#1D3557;" vertex="1" parent="WIyWlLk6GJQsqaUBKTNV-1">
          <mxGeometry x="335" y="430" width="90" height="30" as="geometry" />
        </mxCell>
        <mxCell id="_8PwzIx_y7-3H37tJzUT-13" value="选择cheama" style="rounded=1;whiteSpace=wrap;html=1;fontSize=12;glass=0;strokeWidth=1;shadow=0;labelBackgroundColor=none;fillColor=#A8DADC;strokeColor=#457B9D;fontColor=#1D3557;" vertex="1" parent="WIyWlLk6GJQsqaUBKTNV-1">
          <mxGeometry x="680" y="370" width="80" height="30" as="geometry" />
        </mxCell>
        <mxCell id="_8PwzIx_y7-3H37tJzUT-32" style="edgeStyle=orthogonalEdgeStyle;rounded=0;orthogonalLoop=1;jettySize=auto;html=1;exitX=0.5;exitY=1;exitDx=0;exitDy=0;entryX=0.5;entryY=0;entryDx=0;entryDy=0;" edge="1" parent="WIyWlLk6GJQsqaUBKTNV-1" source="_8PwzIx_y7-3H37tJzUT-14" target="_8PwzIx_y7-3H37tJzUT-20">
          <mxGeometry relative="1" as="geometry" />
        </mxCell>
        <mxCell id="_8PwzIx_y7-3H37tJzUT-14" value="生成查询" style="rounded=1;whiteSpace=wrap;html=1;fontSize=12;glass=0;strokeWidth=1;shadow=0;labelBackgroundColor=none;fillColor=#A8DADC;strokeColor=#457B9D;fontColor=#1D3557;" vertex="1" parent="WIyWlLk6GJQsqaUBKTNV-1">
          <mxGeometry x="340" y="290" width="80" height="30" as="geometry" />
        </mxCell>
        <mxCell id="_8PwzIx_y7-3H37tJzUT-36" style="edgeStyle=orthogonalEdgeStyle;rounded=0;orthogonalLoop=1;jettySize=auto;html=1;exitX=0.5;exitY=1;exitDx=0;exitDy=0;entryX=1;entryY=0.5;entryDx=0;entryDy=0;" edge="1" parent="WIyWlLk6GJQsqaUBKTNV-1" source="_8PwzIx_y7-3H37tJzUT-15" target="_8PwzIx_y7-3H37tJzUT-14">
          <mxGeometry relative="1" as="geometry" />
        </mxCell>
        <mxCell id="_8PwzIx_y7-3H37tJzUT-15" value="选择二级知识点i以及数量ij" style="rounded=1;whiteSpace=wrap;html=1;fontSize=12;glass=0;strokeWidth=1;shadow=0;labelBackgroundColor=none;fillColor=#A8DADC;strokeColor=#457B9D;fontColor=#1D3557;" vertex="1" parent="WIyWlLk6GJQsqaUBKTNV-1">
          <mxGeometry x="445" y="198" width="80" height="30" as="geometry" />
        </mxCell>
        <mxCell id="_8PwzIx_y7-3H37tJzUT-26" style="edgeStyle=orthogonalEdgeStyle;rounded=0;orthogonalLoop=1;jettySize=auto;html=1;exitX=0.5;exitY=1;exitDx=0;exitDy=0;entryX=0.5;entryY=0;entryDx=0;entryDy=0;" edge="1" parent="WIyWlLk6GJQsqaUBKTNV-1" source="_8PwzIx_y7-3H37tJzUT-16" target="_8PwzIx_y7-3H37tJzUT-18">
          <mxGeometry relative="1" as="geometry" />
        </mxCell>
        <mxCell id="_8PwzIx_y7-3H37tJzUT-28" style="edgeStyle=orthogonalEdgeStyle;rounded=0;orthogonalLoop=1;jettySize=auto;html=1;exitX=1;exitY=0.5;exitDx=0;exitDy=0;entryX=0.5;entryY=0;entryDx=0;entryDy=0;endArrow=none;startFill=0;" edge="1" parent="WIyWlLk6GJQsqaUBKTNV-1" source="_8PwzIx_y7-3H37tJzUT-16" target="_8PwzIx_y7-3H37tJzUT-15">
          <mxGeometry relative="1" as="geometry" />
        </mxCell>
        <mxCell id="_8PwzIx_y7-3H37tJzUT-16" value="&lt;span&gt;&lt;font style=&quot;color: rgb(255, 255, 255);&quot;&gt;选择一级知识点&lt;/font&gt;&lt;/span&gt;&lt;div&gt;&lt;span&gt;&lt;font style=&quot;color: rgb(255, 255, 255);&quot;&gt;大类i以及数量ij&lt;/font&gt;&lt;/span&gt;&lt;/div&gt;" style="rhombus;whiteSpace=wrap;html=1;shadow=0;fontFamily=Helvetica;fontSize=12;align=center;strokeWidth=1;spacing=6;spacingTop=-4;labelBackgroundColor=none;fillColor=light-dark(#527598, #2566a8);strokeColor=#006EAF;fontColor=#ffffff;verticalAlign=middle;" vertex="1" parent="WIyWlLk6GJQsqaUBKTNV-1">
          <mxGeometry x="315" y="145" width="130" height="60" as="geometry" />
        </mxCell>
        <mxCell id="_8PwzIx_y7-3H37tJzUT-17" value="选择二级知识点以及数量" style="rounded=1;whiteSpace=wrap;html=1;fontSize=12;glass=0;strokeWidth=1;shadow=0;labelBackgroundColor=none;fillColor=#A8DADC;strokeColor=#457B9D;fontColor=#1D3557;" vertex="1" parent="WIyWlLk6GJQsqaUBKTNV-1">
          <mxGeometry x="630" y="320" width="80" height="30" as="geometry" />
        </mxCell>
        <mxCell id="_8PwzIx_y7-3H37tJzUT-31" style="edgeStyle=orthogonalEdgeStyle;rounded=0;orthogonalLoop=1;jettySize=auto;html=1;exitX=0.5;exitY=1;exitDx=0;exitDy=0;" edge="1" parent="WIyWlLk6GJQsqaUBKTNV-1" source="_8PwzIx_y7-3H37tJzUT-18" target="_8PwzIx_y7-3H37tJzUT-14">
          <mxGeometry relative="1" as="geometry" />
        </mxCell>
        <mxCell id="_8PwzIx_y7-3H37tJzUT-18" value="对知识点大类i下所有知识点生成ij条数据" style="rounded=1;whiteSpace=wrap;html=1;fontSize=12;glass=0;strokeWidth=1;shadow=0;labelBackgroundColor=none;fillColor=#A8DADC;strokeColor=#457B9D;fontColor=#1D3557;" vertex="1" parent="WIyWlLk6GJQsqaUBKTNV-1">
          <mxGeometry x="319.5" y="235" width="121" height="30" as="geometry" />
        </mxCell>
        <mxCell id="_8PwzIx_y7-3H37tJzUT-19" value="选择cheama" style="rounded=1;whiteSpace=wrap;html=1;fontSize=12;glass=0;strokeWidth=1;shadow=0;labelBackgroundColor=none;fillColor=#A8DADC;strokeColor=#457B9D;fontColor=#1D3557;" vertex="1" parent="WIyWlLk6GJQsqaUBKTNV-1">
          <mxGeometry x="200" y="630" width="80" height="30" as="geometry" />
        </mxCell>
        <mxCell id="_8PwzIx_y7-3H37tJzUT-34" style="edgeStyle=orthogonalEdgeStyle;rounded=0;orthogonalLoop=1;jettySize=auto;html=1;exitX=0.5;exitY=1;exitDx=0;exitDy=0;entryX=0.5;entryY=0;entryDx=0;entryDy=0;" edge="1" parent="WIyWlLk6GJQsqaUBKTNV-1" source="_8PwzIx_y7-3H37tJzUT-20" target="_8PwzIx_y7-3H37tJzUT-12">
          <mxGeometry relative="1" as="geometry" />
        </mxCell>
        <mxCell id="_8PwzIx_y7-3H37tJzUT-38" style="edgeStyle=orthogonalEdgeStyle;rounded=0;orthogonalLoop=1;jettySize=auto;html=1;exitX=0;exitY=0.5;exitDx=0;exitDy=0;entryX=0;entryY=0.5;entryDx=0;entryDy=0;endArrow=none;startFill=0;" edge="1" parent="WIyWlLk6GJQsqaUBKTNV-1" source="_8PwzIx_y7-3H37tJzUT-20" target="_8PwzIx_y7-3H37tJzUT-11">
          <mxGeometry relative="1" as="geometry" />
        </mxCell>
        <mxCell id="_8PwzIx_y7-3H37tJzUT-20" value="是否选择schema，&lt;div&gt;知识点&lt;/div&gt;" style="rhombus;whiteSpace=wrap;html=1;shadow=0;fontFamily=Helvetica;fontSize=12;align=center;strokeWidth=1;spacing=6;spacingTop=-4;labelBackgroundColor=none;fillColor=light-dark(#527598, #2566a8);strokeColor=#006EAF;fontColor=#ffffff;verticalAlign=middle;" vertex="1" parent="WIyWlLk6GJQsqaUBKTNV-1">
          <mxGeometry x="319" y="340" width="120" height="70" as="geometry" />
        </mxCell>
        <mxCell id="_8PwzIx_y7-3H37tJzUT-21" value="ddd对的" style="whiteSpace=wrap;html=1;" vertex="1" parent="WIyWlLk6GJQsqaUBKTNV-1">
          <mxGeometry x="620" y="450" width="120" height="60" as="geometry" />
        </mxCell>
        <mxCell id="_8PwzIx_y7-3H37tJzUT-22" value="批量生成" style="rounded=1;whiteSpace=wrap;html=1;fontSize=12;glass=0;strokeWidth=1;shadow=0;labelBackgroundColor=none;fillColor=#A8DADC;strokeColor=#457B9D;fontColor=#1D3557;" vertex="1" parent="WIyWlLk6GJQsqaUBKTNV-1">
          <mxGeometry x="140" y="910" width="90" height="30" as="geometry" />
        </mxCell>
        <mxCell id="_8PwzIx_y7-3H37tJzUT-23" value="结束" style="strokeWidth=2;html=1;shape=mxgraph.flowchart.start_2;whiteSpace=wrap;labelBackgroundColor=none;fillColor=#dae8fc;strokeColor=#6c8ebf;" vertex="1" parent="WIyWlLk6GJQsqaUBKTNV-1">
          <mxGeometry x="335" y="480" width="90" height="40" as="geometry" />
        </mxCell>
        <mxCell id="_8PwzIx_y7-3H37tJzUT-27" value="yes" style="text;html=1;align=center;verticalAlign=middle;resizable=0;points=[];autosize=1;strokeColor=none;fillColor=none;" vertex="1" parent="WIyWlLk6GJQsqaUBKTNV-1">
          <mxGeometry x="380" y="198" width="40" height="30" as="geometry" />
        </mxCell>
        <mxCell id="_8PwzIx_y7-3H37tJzUT-29" value="no" style="text;html=1;align=center;verticalAlign=middle;resizable=0;points=[];autosize=1;strokeColor=none;fillColor=none;" vertex="1" parent="WIyWlLk6GJQsqaUBKTNV-1">
          <mxGeometry x="450" y="148" width="40" height="30" as="geometry" />
        </mxCell>
        <mxCell id="_8PwzIx_y7-3H37tJzUT-35" style="edgeStyle=orthogonalEdgeStyle;rounded=0;orthogonalLoop=1;jettySize=auto;html=1;exitX=0.5;exitY=1;exitDx=0;exitDy=0;entryX=0.5;entryY=0;entryDx=0;entryDy=0;entryPerimeter=0;" edge="1" parent="WIyWlLk6GJQsqaUBKTNV-1" source="_8PwzIx_y7-3H37tJzUT-12" target="_8PwzIx_y7-3H37tJzUT-23">
          <mxGeometry relative="1" as="geometry" />
        </mxCell>
        <mxCell id="_8PwzIx_y7-3H37tJzUT-37" value="yes" style="text;html=1;align=center;verticalAlign=middle;resizable=0;points=[];autosize=1;strokeColor=none;fillColor=none;" vertex="1" parent="WIyWlLk6GJQsqaUBKTNV-1">
          <mxGeometry x="380" y="398" width="40" height="30" as="geometry" />
        </mxCell>
      </root>
    </mxGraphModel>
  </diagram>
</mxfile>
